<?xml version="1.0" encoding="utf-8"?>
<!-- Generator: Adobe Illustrator 23.0.3, SVG Export Plug-In . SVG Version: 6.00 Build 0)  -->
<svg version="1.1" id="Layer_1" xmlns="http://www.w3.org/2000/svg" xmlns:xlink="http://www.w3.org/1999/xlink" x="0px" y="0px"
	 viewBox="0 0 36 36" style="enable-background:new 0 0 36 36;" xml:space="preserve">
<style type="text/css">
	.st0{fill:url(#SVGID_1_);}
	.st1{fill:url(#SVGID_2_);}
	.st2{fill:url(#SVGID_3_);}
	.st3{fill:url(#SVGID_4_);}
	.st4{fill:url(#SVGID_5_);}
	.st5{fill:url(#SVGID_6_);}
	.st6{fill:url(#SVGID_7_);}
	.st7{fill:url(#SVGID_8_);}
	.st8{fill:url(#SVGID_9_);}
	.st9{fill:url(#SVGID_10_);}
</style>
<g>
	<g>
		<linearGradient id="SVGID_1_" gradientUnits="userSpaceOnUse" x1="-3.3807" y1="-2.5477" x2="33.0693" y2="33.0923">
			<stop  offset="0" style="stop-color:#FFFFFF"/>
			<stop  offset="1" style="stop-color:#DEDEDE"/>
		</linearGradient>
		<path class="st0" d="M17.7,34.86c-8.96-0.1-16.21-7.14-16.5-16.03c-0.15-4.62,1.5-8.96,4.64-12.2c3.13-3.24,7.52-5.09,12.03-5.09
			h0.03c4.49,0.01,8.7,1.77,11.84,4.96c3.14,3.19,4.84,7.42,4.79,11.92c-0.05,4.46-1.83,8.62-5,11.71
			c-3.13,3.05-7.27,4.74-11.63,4.74L17.7,34.86z M17.76,4.65c-7.3,0-13.46,6.2-13.46,13.55c0,7.46,6.08,13.55,13.56,13.57h0.04
			c3.69,0,7.28-1.56,9.84-4.28c2.58-2.74,3.88-6.35,3.65-10.17c-0.43-7.1-6.35-12.66-13.48-12.66L17.76,4.65z"/>
		<linearGradient id="SVGID_2_" gradientUnits="userSpaceOnUse" x1="-3.3809" y1="-2.5475" x2="33.0691" y2="33.0925">
			<stop  offset="0" style="stop-color:#FFFFFF"/>
			<stop  offset="1" style="stop-color:#DEDEDE"/>
		</linearGradient>
		<path class="st1" d="M17.86,2.02c0.01,0,0.02,0,0.02,0c9,0.02,16.25,7.33,16.14,16.38c-0.11,9.03-7.47,15.97-16.15,15.97
			c-0.06,0-0.12,0-0.18,0c-8.76-0.09-15.74-7-16.02-15.56C1.37,9.17,9.04,2.02,17.86,2.02 M17.89,32.26
			c7.73,0,14.48-6.52,13.98-14.97C31.44,10.2,25.44,4.17,17.9,4.17c-0.02,0-0.03,0-0.05,0c-0.03,0-0.06,0-0.09,0
			c-7.73,0-13.95,6.5-13.95,14.04c0,7.35,5.96,14.03,14.04,14.05C17.86,32.26,17.88,32.26,17.89,32.26 M17.86,1.05L17.86,1.05
			c-4.64,0-9.15,1.91-12.38,5.24c-3.23,3.34-4.93,7.8-4.78,12.55c0.3,9.15,7.76,16.4,16.98,16.5c0.06,0,0.12,0,0.19,0
			c4.49,0,8.74-1.73,11.97-4.87c3.27-3.19,5.1-7.47,5.15-12.06c0.05-4.63-1.7-8.99-4.93-12.26c-3.23-3.28-7.56-5.09-12.18-5.1
			L17.86,1.05L17.86,1.05z M17.89,31.28l-0.03,0C10.65,31.26,4.78,25.4,4.78,18.2c0-7.08,5.94-13.06,12.98-13.06l0.09,0l0.06,0
			c6.76,0,12.59,5.47,12.99,12.2c0.22,3.68-1.03,7.16-3.52,9.81C24.9,29.78,21.45,31.28,17.89,31.28L17.89,31.28z"/>
	</g>
	<g>
		<linearGradient id="SVGID_3_" gradientUnits="userSpaceOnUse" x1="-6.7397" y1="0.8876" x2="29.7103" y2="36.5276">
			<stop  offset="0" style="stop-color:#FFFFFF"/>
			<stop  offset="1" style="stop-color:#DEDEDE"/>
		</linearGradient>
		<path class="st2" d="M7.24,18.25c0.07-0.52,0.12-1.2,0.27-1.87c0.18-0.84,0.89-1.23,1.71-0.97c2.02,0.65,4.04,1.31,6.05,1.96
			c0.16,0.05,0.32,0.1,0.48,0.14c0.37,0.08,0.56,0.32,0.56,0.68c0.01,0.37-0.18,0.59-0.54,0.7c-1.95,0.62-3.9,1.25-5.84,1.88
			c-0.22,0.07-0.43,0.14-0.65,0.21c-0.93,0.29-1.7-0.18-1.86-1.14C7.35,19.37,7.32,18.9,7.24,18.25z"/>
		<linearGradient id="SVGID_4_" gradientUnits="userSpaceOnUse" x1="0.8446" y1="-6.869" x2="37.2946" y2="28.771">
			<stop  offset="0" style="stop-color:#FFFFFF"/>
			<stop  offset="1" style="stop-color:#DEDEDE"/>
		</linearGradient>
		<path class="st3" d="M26.73,12.86c-0.06,0.55-0.28,0.95-0.74,1.18c-2.11,1.08-4.22,2.17-6.34,3.22c-0.17,0.09-0.51,0-0.69-0.13
			c-0.29-0.19-0.28-0.52-0.13-0.83c0.41-0.82,0.82-1.64,1.24-2.46c0.62-1.21,1.24-2.43,1.86-3.64c0.46-0.9,1.26-1.1,2.1-0.54
			c0.95,0.64,1.75,1.44,2.38,2.4C26.55,12.31,26.62,12.6,26.73,12.86z"/>
		<linearGradient id="SVGID_5_" gradientUnits="userSpaceOnUse" x1="-7.5984" y1="1.7659" x2="28.8516" y2="37.4059">
			<stop  offset="0" style="stop-color:#FFFFFF"/>
			<stop  offset="1" style="stop-color:#DEDEDE"/>
		</linearGradient>
		<path class="st4" d="M12.53,27.08c-0.25-0.09-0.53-0.14-0.75-0.29c-1.02-0.67-1.88-1.52-2.54-2.55C8.8,23.56,9,22.73,9.72,22.36
			c2.05-1.06,4.1-2.1,6.16-3.15c0.33-0.17,0.64-0.22,0.91,0.08c0.26,0.29,0.23,0.59,0.06,0.93c-1.03,1.99-2.06,3.99-3.07,5.99
			C13.51,26.72,13.14,27.02,12.53,27.08z"/>
		<linearGradient id="SVGID_6_" gradientUnits="userSpaceOnUse" x1="-3.2989" y1="-2.6313" x2="33.1511" y2="33.0087">
			<stop  offset="0" style="stop-color:#FFFFFF"/>
			<stop  offset="1" style="stop-color:#DEDEDE"/>
		</linearGradient>
		<path class="st5" d="M12.43,9.35c0.66,0.06,1.05,0.28,1.27,0.72c1.06,2.07,2.1,4.14,3.16,6.21c0.18,0.35,0.14,0.65-0.15,0.91
			c-0.27,0.25-0.54,0.16-0.84,0c-1.95-1-3.92-1.99-5.87-2.99c-1.09-0.56-1.28-1.31-0.58-2.31c0.61-0.87,1.36-1.62,2.25-2.2
			C11.93,9.52,12.26,9.43,12.43,9.35z"/>
		<linearGradient id="SVGID_7_" gradientUnits="userSpaceOnUse" x1="-6.7906" y1="0.9397" x2="29.6594" y2="36.5797">
			<stop  offset="0" style="stop-color:#FFFFFF"/>
			<stop  offset="1" style="stop-color:#DEDEDE"/>
		</linearGradient>
		<path class="st6" d="M17.86,28.8c-0.58-0.07-1.16-0.12-1.73-0.22c-0.9-0.16-1.34-0.9-1.07-1.77c0.65-2.04,1.32-4.07,1.98-6.1
			c0.06-0.17,0.09-0.35,0.15-0.53c0.11-0.32,0.35-0.45,0.67-0.45c0.31,0,0.53,0.13,0.63,0.43c0.72,2.24,1.46,4.47,2.16,6.71
			c0.25,0.8-0.2,1.54-1.02,1.69C19.05,28.68,18.45,28.72,17.86,28.8z"/>
		<linearGradient id="SVGID_8_" gradientUnits="userSpaceOnUse" x1="-9.264595e-03" y1="-5.9958" x2="36.4407" y2="29.6442">
			<stop  offset="0" style="stop-color:#FFFFFF"/>
			<stop  offset="1" style="stop-color:#DEDEDE"/>
		</linearGradient>
		<path class="st7" d="M28.44,17.94c-0.07,0.72-0.09,1.34-0.19,1.94c-0.15,0.94-0.92,1.39-1.84,1.09c-2.18-0.71-4.35-1.42-6.53-2.13
			c-0.32-0.1-0.5-0.29-0.51-0.62c-0.01-0.34,0.15-0.57,0.49-0.68c2.18-0.7,4.35-1.42,6.53-2.12c0.93-0.3,1.66,0.14,1.83,1.09
			C28.32,17.02,28.38,17.54,28.44,17.94z"/>
		<linearGradient id="SVGID_9_" gradientUnits="userSpaceOnUse" x1="-3.4451" y1="-2.4818" x2="33.0049" y2="33.1582">
			<stop  offset="0" style="stop-color:#FFFFFF"/>
			<stop  offset="1" style="stop-color:#DEDEDE"/>
		</linearGradient>
		<path class="st8" d="M26.74,23.56c-0.12,0.27-0.2,0.57-0.37,0.82c-0.62,0.94-1.41,1.72-2.35,2.36c-0.81,0.55-1.63,0.35-2.08-0.51
			c-1.06-2.05-2.1-4.11-3.14-6.17c-0.14-0.28-0.12-0.52,0.11-0.75c0.25-0.26,0.53-0.27,0.84-0.12c0.83,0.42,1.66,0.84,2.49,1.26
			c1.23,0.62,2.45,1.25,3.67,1.87C26.4,22.57,26.68,22.96,26.74,23.56z"/>
		<linearGradient id="SVGID_10_" gradientUnits="userSpaceOnUse" x1="0.0409" y1="-6.0471" x2="36.4909" y2="29.5929">
			<stop  offset="0" style="stop-color:#FFFFFF"/>
			<stop  offset="1" style="stop-color:#DEDEDE"/>
		</linearGradient>
		<path class="st9" d="M17.83,7.61c0.63,0.08,1.23,0.12,1.81,0.24c0.83,0.17,1.27,0.89,1.01,1.7c-0.71,2.23-1.44,4.45-2.19,6.66
			c-0.07,0.2-0.37,0.4-0.6,0.45c-0.31,0.08-0.55-0.12-0.65-0.44c-0.73-2.25-1.48-4.5-2.19-6.76c-0.22-0.7,0.2-1.42,0.94-1.58
			C16.58,7.74,17.23,7.69,17.83,7.61z"/>
	</g>
</g>
</svg>
