<?xml version="1.0" encoding="utf-8"?>
<!-- Generator: Adobe Illustrator 23.0.3, SVG Export Plug-In . SVG Version: 6.00 Build 0)  -->
<svg version="1.1" id="Layer_1" xmlns="http://www.w3.org/2000/svg" xmlns:xlink="http://www.w3.org/1999/xlink" x="0px" y="0px"
	 viewBox="0 0 300 100" style="enable-background:new 0 0 300 100;" xml:space="preserve">
<style type="text/css">
	.st0{fill:#FFA500;}
</style>
<g>
	<path class="st0" d="M10.59,48.33v-0.16c0-16.02,12.91-29.01,30.13-29.01s29.97,12.83,29.97,28.86v0.16
		c0,16.02-12.91,29.02-30.13,29.02S10.59,64.35,10.59,48.33z M54.91,48.33v-0.16c0-8.05-5.82-15.07-14.35-15.07
		c-8.45,0-14.11,6.86-14.11,14.91v0.16c0,8.05,5.82,15.07,14.27,15.07C49.25,63.24,54.91,56.38,54.91,48.33z"/>
	<path class="st0" d="M73.88,32.95h15.15v8.69c2.47-5.9,6.46-9.72,13.63-9.41v15.94h-1.28c-7.89,0-12.36,4.54-12.36,14.51v13.39
		H73.88V32.95z"/>
	<path class="st0" d="M99.87,63.72v-0.16c0-8.93,6.78-13.55,16.9-13.55c3.99,0,7.89,0.8,10.36,1.67v-0.72
		c0-4.46-2.79-7.01-8.61-7.01c-4.54,0-8.05,0.88-11.88,2.39l-3.11-10.68c4.86-1.99,10.04-3.35,17.46-3.35
		c7.73,0,12.99,1.83,16.42,5.26c3.27,3.19,4.62,7.65,4.62,13.71v24.79h-14.99v-4.46c-2.95,3.27-7.01,5.42-12.67,5.42
		C106.16,77.03,99.87,72.33,99.87,63.72z M127.29,60.45v-1.99c-1.51-0.64-3.67-1.12-5.9-1.12c-4.38,0-6.94,2.15-6.94,5.34v0.16
		c0,2.95,2.23,4.7,5.34,4.7C124.18,67.54,127.29,64.75,127.29,60.45z"/>
	<path class="st0" d="M145.78,32.95h15.15v6.06c2.79-3.59,6.78-7.01,12.91-7.01c9.17,0,14.67,6.06,14.67,15.86v28.22h-15.15V52.72
		c0-4.7-2.47-7.25-6.06-7.25c-3.67,0-6.38,2.55-6.38,7.25v23.36h-15.15V32.95z"/>
	<path class="st0" d="M191.93,84.04L196.79,74c4.62,2.55,9.25,4.07,15.07,4.07c7.57,0,11.32-3.75,11.32-10.6v-1.67
		c-3.03,3.51-7.01,6.46-13.31,6.46c-10.6,0-19.13-7.65-19.13-20.01v-0.16c0-12.44,8.69-20.09,18.65-20.09
		c6.46,0,10.28,2.63,13.55,6.06v-5.1h15.15v32.76c0,7.89-1.75,13.39-5.58,17.22c-3.91,3.91-9.96,6.06-18.97,6.06
		C205.16,88.98,198.15,87.23,191.93,84.04z M223.18,52.24v-0.16c0-4.78-3.67-8.29-8.77-8.29c-5.18,0-8.85,3.59-8.85,8.37v0.16
		c0,4.78,3.67,8.29,8.85,8.29C219.51,60.61,223.18,57.02,223.18,52.24z"/>
	<path class="st0" d="M240.48,54.71v-0.16c0-12.59,9.01-22.56,21.76-22.56c14.91,0,21.76,10.92,21.76,23.59c0,0.96,0,2.07-0.08,3.11
		h-28.86c1.2,4.7,4.62,7.09,9.33,7.09c3.59,0,6.46-1.35,9.57-4.38l8.37,6.93c-4.14,5.26-10.12,8.77-18.73,8.77
		C250.04,77.11,240.48,68.1,240.48,54.71z M269.81,50.96c-0.56-4.78-3.35-7.81-7.49-7.81c-3.99,0-6.7,3.11-7.49,7.81H269.81z"/>
</g>
</svg>
