<?xml version="1.0" encoding="utf-8"?>
<!-- Generator: Adobe Illustrator 23.0.3, SVG Export Plug-In . SVG Version: 6.00 Build 0)  -->
<svg version="1.1" id="Layer_1" xmlns="http://www.w3.org/2000/svg" xmlns:xlink="http://www.w3.org/1999/xlink" x="0px" y="0px"
	 viewBox="0 0 490.8 163.6" style="enable-background:new 0 0 490.8 163.6;" xml:space="preserve">
<style type="text/css">
	.st0{fill:#FFA500;}
</style>
<g>
	<path class="st0" d="M9.99,76.1v-0.27c0-27.27,21.98-49.39,51.29-49.39s51.02,21.85,51.02,49.12v0.27
		c0,27.27-21.98,49.39-51.29,49.39S9.99,103.37,9.99,76.1z M85.43,76.1v-0.27c0-13.7-9.91-25.65-24.42-25.65
		c-14.38,0-24.02,11.67-24.02,25.37v0.27c0,13.7,9.91,25.65,24.29,25.65C75.8,101.47,85.43,89.81,85.43,76.1z"/>
	<path class="st0" d="M117.72,49.91h25.78V64.7c4.21-10.04,10.99-16.55,23.2-16.01v27.14h-2.17c-13.43,0-21.03,7.73-21.03,24.7v22.8
		h-25.78V49.91z"/>
	<path class="st0" d="M161.96,102.29v-0.27c0-15.2,11.53-23.07,28.77-23.07c6.78,0,13.43,1.36,17.64,2.85v-1.22
		c0-7.6-4.75-11.94-14.66-11.94c-7.73,0-13.7,1.49-20.22,4.07l-5.29-18.18c8.28-3.39,17.1-5.7,29.72-5.7
		c13.16,0,22.12,3.12,27.95,8.96c5.56,5.43,7.87,13.03,7.87,23.34v42.2h-25.51v-7.6c-5.02,5.56-11.94,9.23-21.57,9.23
		C172.68,124.95,161.96,116.94,161.96,102.29z M208.64,96.73v-3.39c-2.58-1.09-6.24-1.9-10.04-1.9c-7.46,0-11.81,3.66-11.81,9.09
		v0.27c0,5.02,3.8,8.01,9.09,8.01C203.34,108.8,208.64,104.05,208.64,96.73z"/>
	<path class="st0" d="M240.12,49.91h25.78v10.31c4.75-6.11,11.53-11.94,21.98-11.94c15.6,0,24.97,10.31,24.97,27v48.03h-25.78V83.56
		c0-8.01-4.21-12.35-10.31-12.35c-6.24,0-10.86,4.34-10.86,12.35v39.76h-25.78V49.91z"/>
	<path class="st0" d="M318.68,136.89l8.28-17.1c7.87,4.34,15.74,6.92,25.65,6.92c12.89,0,19.27-6.38,19.27-18.05v-2.85
		c-5.16,5.97-11.94,10.99-22.66,10.99c-18.05,0-32.57-13.03-32.57-34.06v-0.27c0-21.17,14.79-34.19,31.75-34.19
		c10.99,0,17.5,4.48,23.07,10.31v-8.68h25.78v55.77c0,13.43-2.99,22.8-9.5,29.31c-6.65,6.65-16.96,10.31-32.29,10.31
		C341.2,145.3,329.26,142.32,318.68,136.89z M371.87,82.75v-0.27c0-8.14-6.24-14.11-14.93-14.11c-8.82,0-15.06,6.11-15.06,14.25
		v0.27c0,8.14,6.24,14.11,15.06,14.11C365.63,97,371.87,90.89,371.87,82.75z"/>
	<path class="st0" d="M401.31,86.96v-0.27c0-21.44,15.33-38.4,37.04-38.4c25.37,0,37.04,18.59,37.04,40.16c0,1.63,0,3.53-0.13,5.29
		h-49.12c2.03,8.01,7.87,12.08,15.88,12.08c6.11,0,10.99-2.31,16.28-7.46l14.25,11.8c-7.05,8.96-17.23,14.93-31.89,14.93
		C417.6,125.08,401.31,109.75,401.31,86.96z M451.25,80.58c-0.95-8.14-5.7-13.3-12.76-13.3c-6.78,0-11.4,5.29-12.75,13.3H451.25z"/>
</g>
</svg>
