<?xml version="1.0" encoding="utf-8"?>
<!-- Generator: Adobe Illustrator 23.0.3, SVG Export Plug-In . SVG Version: 6.00 Build 0)  -->
<svg version="1.1" id="Layer_1" xmlns="http://www.w3.org/2000/svg" xmlns:xlink="http://www.w3.org/1999/xlink" x="0px" y="0px"
	 viewBox="0 0 567.8 163.6" style="enable-background:new 0 0 567.8 163.6;" xml:space="preserve">
<style type="text/css">
	.st0{fill:#FFA500;}
	.st1{fill:#FDFDFA;}
	.st2{fill:#FEAC01;}
	.st3{fill:url(#SVGID_1_);}
</style>
<g>
	<g>
		<path class="st0" d="M159.99,80.32v-0.24c0-23.87,19.24-43.24,44.9-43.24s44.66,19.12,44.66,43v0.24
			c0,23.88-19.24,43.24-44.9,43.24S159.99,104.19,159.99,80.32z M226.03,80.32v-0.24c0-12-8.67-22.45-21.38-22.45
			c-12.59,0-21.02,10.22-21.02,22.21v0.24c0,12,8.67,22.45,21.26,22.45C217.59,102.53,226.03,92.32,226.03,80.32z"/>
		<path class="st0" d="M254.3,57.39h22.57v12.95c3.68-8.79,9.62-14.49,20.31-14.02v23.76h-1.9c-11.76,0-18.41,6.77-18.41,21.62
			v19.95H254.3V57.39z"/>
		<path class="st0" d="M293.02,103.24v-0.24c0-13.3,10.1-20.19,25.18-20.19c5.94,0,11.76,1.19,15.44,2.49v-1.07
			c0-6.65-4.16-10.45-12.83-10.45c-6.77,0-12,1.31-17.7,3.56l-4.63-15.92c7.25-2.97,14.97-4.99,26.01-4.99
			c11.52,0,19.36,2.73,24.47,7.84c4.87,4.75,6.89,11.4,6.89,20.43v36.94h-22.33V115c-4.39,4.87-10.45,8.08-18.89,8.08
			C302.4,123.08,293.02,116.07,293.02,103.24z M333.88,98.37V95.4c-2.26-0.95-5.46-1.66-8.79-1.66c-6.53,0-10.33,3.21-10.33,7.96
			v0.24c0,4.39,3.33,7.01,7.96,7.01C329.25,108.94,333.88,104.79,333.88,98.37z"/>
		<path class="st0" d="M361.44,57.39h22.57v9.03c4.16-5.35,10.1-10.45,19.24-10.45c13.66,0,21.86,9.03,21.86,23.64v42.05h-22.57
			v-34.8c0-7.01-3.68-10.81-9.03-10.81c-5.46,0-9.5,3.8-9.5,10.81v34.8h-22.57V57.39z"/>
		<path class="st0" d="M430.21,133.53l7.25-14.97c6.89,3.8,13.78,6.06,22.45,6.06c11.28,0,16.87-5.58,16.87-15.8v-2.5
			c-4.51,5.23-10.45,9.62-19.84,9.62c-15.8,0-28.51-11.4-28.51-29.81V85.9c0-18.53,12.95-29.93,27.8-29.93
			c9.62,0,15.32,3.92,20.19,9.03v-7.6h22.57v48.82c0,11.76-2.61,19.95-8.31,25.66c-5.82,5.82-14.85,9.03-28.27,9.03
			C449.93,140.9,439.48,138.28,430.21,133.53z M476.77,86.14V85.9c0-7.13-5.46-12.35-13.07-12.35c-7.72,0-13.18,5.34-13.18,12.47
			v0.24c0,7.13,5.46,12.35,13.18,12.35C471.31,98.61,476.77,93.27,476.77,86.14z"/>
		<path class="st0" d="M502.55,89.82v-0.24c0-18.77,13.42-33.61,32.43-33.61c22.21,0,32.43,16.27,32.43,35.16
			c0,1.43,0,3.09-0.12,4.63h-43c1.78,7.01,6.89,10.57,13.9,10.57c5.34,0,9.62-2.02,14.25-6.53l12.47,10.33
			c-6.18,7.84-15.08,13.07-27.91,13.07C516.8,123.2,502.55,109.78,502.55,89.82z M546.26,84.24c-0.83-7.13-4.99-11.64-11.17-11.64
			c-5.94,0-9.98,4.63-11.16,11.64H546.26z"/>
	</g>
	<g>
		<path class="st0" d="M71.22,151.74c-36.88-0.4-66.69-29.36-67.88-65.94C2.72,66.78,9.5,48.96,22.42,35.61
			C35.32,22.29,53.35,14.65,71.9,14.65H72c18.48,0.05,35.78,7.29,48.69,20.4c12.92,13.1,19.91,30.51,19.7,49.03
			c-0.21,18.34-7.52,35.45-20.59,48.18c-12.9,12.57-29.89,19.49-47.85,19.49L71.22,151.74z M71.49,27.48
			C41.46,27.48,16.1,53,16.1,83.21c0,30.69,25.02,55.72,55.77,55.81h0.15c15.18,0,29.93-6.42,40.48-17.62
			c10.63-11.28,15.96-26.14,15.02-41.84c-1.75-29.21-26.1-52.08-55.44-52.08L71.49,27.48z"/>
		<path class="st0" d="M71.9,16.65c0.04,0,0.07,0,0.1,0c37.01,0.1,66.83,30.14,66.39,67.4c-0.43,37.14-30.71,65.69-66.44,65.69
			c-0.24,0-0.48,0-0.72,0c-36.02-0.39-64.76-28.81-65.9-64.01C4.05,46.06,35.62,16.65,71.9,16.65 M72.02,141.02
			c31.82,0,59.58-26.82,57.49-61.58c-1.75-29.16-26.43-53.96-57.44-53.96c-0.07,0-0.13,0-0.2,0c-0.13,0-0.26,0-0.39,0
			c-31.79,0-57.39,26.75-57.39,57.74c0,30.24,24.54,57.72,57.76,57.81C71.91,141.02,71.96,141.02,72.02,141.02 M71.9,12.65
			L71.9,12.65c-19.09,0-37.65,7.86-50.91,21.56C7.68,47.96,0.7,66.3,1.34,85.86c1.22,37.65,31.91,67.47,69.86,67.88
			c0.26,0,0.51,0,0.77,0c18.48,0,35.97-7.12,49.24-20.05c13.45-13.1,20.97-30.71,21.19-49.59c0.22-19.05-6.98-36.97-20.27-50.45
			c-13.3-13.49-31.09-20.94-50.11-20.99L71.9,12.65L71.9,12.65z M72.02,137.02l-0.14,0C42.22,136.94,18.1,112.8,18.1,83.21
			c0-29.13,24.45-53.74,53.39-53.74l0.36,0l0.23,0c27.81,0,51.78,22.52,53.44,50.2c0.91,15.14-4.23,29.47-14.48,40.35
			C100.87,130.83,86.64,137.02,72.02,137.02L72.02,137.02z"/>
	</g>
	<g>
		<path class="st0" d="M28.22,83.41c0.29-2.13,0.51-4.95,1.09-7.71c0.73-3.47,3.64-5.06,7.04-3.97c8.31,2.66,16.61,5.38,24.91,8.07
			c0.66,0.21,1.32,0.41,1.99,0.56c1.51,0.34,2.29,1.3,2.32,2.8c0.03,1.5-0.75,2.42-2.21,2.88c-8.02,2.55-16.03,5.14-24.04,7.72
			c-0.9,0.29-1.79,0.59-2.69,0.87c-3.82,1.18-6.99-0.74-7.64-4.71C28.67,88.02,28.52,86.07,28.22,83.41z"/>
		<path class="st0" d="M108.39,61.25c-0.26,2.24-1.15,3.89-3.06,4.87c-8.68,4.45-17.35,8.91-26.09,13.23
			c-0.71,0.35-2.1-0.01-2.85-0.52c-1.18-0.8-1.14-2.15-0.52-3.4c1.69-3.37,3.38-6.74,5.1-10.11c2.54-4.99,5.09-9.98,7.65-14.96
			c1.91-3.71,5.18-4.54,8.63-2.21c3.91,2.64,7.2,5.92,9.77,9.87C107.64,58.99,107.94,60.17,108.39,61.25z"/>
		<path class="st0" d="M49.97,119.74c-1.04-0.39-2.2-0.59-3.1-1.19c-4.21-2.75-7.73-6.24-10.44-10.48
			c-1.81-2.84-0.98-6.23,1.96-7.76c8.42-4.37,16.88-8.64,25.32-12.96c1.35-0.69,2.63-0.92,3.75,0.34c1.07,1.19,0.96,2.43,0.24,3.81
			c-4.25,8.2-8.46,16.42-12.64,24.65C54,118.24,52.45,119.48,49.97,119.74z"/>
		<path class="st0" d="M49.56,46.81c2.7,0.24,4.3,1.15,5.23,2.97c4.35,8.5,8.65,17.03,12.99,25.53c0.73,1.43,0.57,2.67-0.61,3.74
			c-1.13,1.02-2.23,0.64-3.45,0.01c-8.04-4.13-16.11-8.2-24.17-12.3c-4.5-2.29-5.26-5.4-2.39-9.49c2.52-3.59,5.59-6.64,9.24-9.06
			C47.52,47.48,48.87,47.11,49.56,46.81z"/>
		<path class="st0" d="M71.87,126.81c-2.38-0.3-4.76-0.51-7.11-0.92c-3.7-0.65-5.53-3.69-4.38-7.28c2.69-8.38,5.44-16.73,8.16-25.09
			c0.23-0.71,0.37-1.46,0.61-2.16c0.44-1.3,1.44-1.86,2.76-1.87c1.26,0,2.2,0.52,2.6,1.77c2.97,9.2,5.99,18.39,8.89,27.62
			c1.04,3.3-0.84,6.33-4.21,6.97C76.78,126.3,74.33,126.5,71.87,126.81z"/>
		<path class="st0" d="M115.4,82.15c-0.28,2.98-0.38,5.51-0.78,7.98c-0.63,3.87-3.8,5.71-7.56,4.49c-8.95-2.9-17.89-5.85-26.85-8.74
			c-1.31-0.42-2.06-1.19-2.09-2.55c-0.02-1.4,0.62-2.33,2.03-2.79c8.96-2.89,17.9-5.84,26.86-8.74c3.81-1.23,6.82,0.56,7.53,4.47
			C114.92,78.37,115.16,80.49,115.4,82.15z"/>
		<path class="st0" d="M108.41,105.24c-0.49,1.13-0.84,2.35-1.51,3.36c-2.55,3.88-5.81,7.09-9.66,9.7
			c-3.33,2.25-6.71,1.46-8.54-2.09c-4.34-8.44-8.63-16.91-12.94-25.36c-0.58-1.14-0.47-2.15,0.44-3.09c1.03-1.06,2.19-1.13,3.44-0.5
			c3.42,1.72,6.84,3.46,10.25,5.2c5.04,2.56,10.08,5.13,15.11,7.7C107.04,101.19,108.16,102.8,108.41,105.24z"/>
		<path class="st0" d="M71.78,39.65c2.6,0.33,5.05,0.5,7.45,0.98c3.42,0.69,5.22,3.68,4.17,6.98c-2.92,9.16-5.91,18.3-9.01,27.4
			c-0.28,0.83-1.52,1.64-2.46,1.87c-1.26,0.31-2.27-0.51-2.69-1.83c-3.01-9.26-6.07-18.51-9.02-27.79
			c-0.92-2.89,0.83-5.84,3.85-6.51C66.63,40.18,69.28,39.99,71.78,39.65z"/>
	</g>
</g>
</svg>
