<?xml version="1.0" encoding="utf-8"?>
<!-- Generator: Adobe Illustrator 23.0.3, SVG Export Plug-In . SVG Version: 6.00 Build 0)  -->
<svg version="1.1" id="Layer_1" xmlns="http://www.w3.org/2000/svg" xmlns:xlink="http://www.w3.org/1999/xlink" x="0px" y="0px"
	 viewBox="0 0 168.8 163.6" style="enable-background:new 0 0 168.8 163.6;" xml:space="preserve">
<style type="text/css">
	.st0{fill:#FFA500;}
	.st1{fill:#FDFDFA;}
	.st2{fill:#FEAC01;}
	.st3{fill:url(#SVGID_1_);}
</style>
<path class="st1" d="M100.73,115.27c-3.01,0.02-6.01-0.28-8.96-0.83c-5.65-1.06-11.06-2.83-16.07-5.72
	c-0.56-0.32-1.03-0.75-1.48-1.2c-0.67-0.67-0.75-1.53-0.46-2.36c0.39-1.1,1.05-1.99,2.33-2.18c1.21-0.18,2.26,0.3,3.28,0.83
	c3.01,1.58,6.12,2.93,9.41,3.82c2.68,0.73,5.42,1.17,8.2,1.43c3.21,0.3,6.4,0.23,9.59-0.09c2.31-0.23,4.59-0.66,6.85-1.19
	c3.15-0.74,6.2-1.75,9.2-2.96c2.35-0.94,4.63-2.03,6.86-3.21c1.66-0.88,3.43,0.12,4.07,1.58c0.63,1.45,0.26,2.63-1.09,3.46
	c-2.98,1.81-6.13,3.27-9.39,4.5c-2.7,1.02-5.45,1.85-8.26,2.49c-2.24,0.51-4.51,0.92-6.8,1.16
	C105.6,115.05,103.17,115.23,100.73,115.27z"/>
<path class="st1" d="M119.15,68.84c-0.06-4.02,3.17-7.36,7.33-7.36c4.22,0,7.35,3.42,7.35,7.37c0,3.87-3.05,7.34-7.31,7.37
	C122.33,76.25,119.08,72.87,119.15,68.84z"/>
<path class="st1" d="M55.06,68.83c-0.13,4.23-3.25,7.34-7.3,7.38c-4.15,0.04-7.45-3.12-7.44-7.38c0.01-4.16,3.2-7.41,7.46-7.35
	C51.91,61.55,54.91,64.71,55.06,68.83z"/>
<path class="st2" d="M134.31,143.11c-0.22,0-0.31-0.12-0.31-0.33c-0.01-0.27,0.13-0.4,0.39-0.41c0.18,0,0.3,0.07,0.27,0.27
	C134.63,142.86,134.62,143.1,134.31,143.11z"/>
<path class="st2" d="M132.16,142.75c-0.04,0.27-0.21,0.36-0.45,0.35c-0.33-0.02-0.35-0.27-0.33-0.51c0.02-0.26,0.19-0.38,0.44-0.36
	C132.15,142.25,132.12,142.52,132.16,142.75z"/>
<linearGradient id="SVGID_1_" gradientUnits="userSpaceOnUse" x1="84.3261" y1="138.1933" x2="83.8752" y2="7.3696">
	<stop  offset="0" style="stop-color:#FFA500"/>
	<stop  offset="1" style="stop-color:#FF7700"/>
</linearGradient>
<path class="st3" d="M148.94,16.12c-43.21,0.01-86.42,0.01-129.62,0c-0.49,0-0.6,0.11-0.6,0.6c0.01,21.6,0.01,43.21,0.01,64.81
	c0,21.6,0,43.21-0.01,64.81c0,0.49,0.11,0.6,0.6,0.6c43.21-0.01,86.42-0.01,129.62,0c0.49,0,0.6-0.11,0.6-0.6
	c-0.01-43.21-0.01-86.42,0-129.62C149.54,16.23,149.43,16.12,148.94,16.12z M126.48,61.48c4.22,0,7.35,3.42,7.35,7.37
	c0,3.87-3.05,7.34-7.31,7.37c-4.2,0.03-7.45-3.35-7.38-7.38C119.09,64.82,122.32,61.48,126.48,61.48z M47.76,76.21
	c-4.15,0.04-7.45-3.12-7.44-7.38c0.01-4.16,3.2-7.41,7.46-7.35c4.12,0.06,7.12,3.22,7.27,7.34C54.93,73.06,51.8,76.17,47.76,76.21z
	 M114.83,113.62c-2.24,0.51-4.51,0.92-6.8,1.16c-2.43,0.26-4.86,0.44-7.3,0.48c-3.01,0.02-6.01-0.28-8.96-0.83
	c-5.65-1.06-11.06-2.83-16.07-5.72c-0.56-0.32-1.03-0.75-1.48-1.2c-0.67-0.67-0.75-1.53-0.46-2.36c0.39-1.1,1.05-1.99,2.33-2.18
	c1.21-0.18,2.26,0.3,3.28,0.83c3.01,1.58,6.12,2.93,9.41,3.82c2.68,0.73,5.42,1.17,8.2,1.43c3.21,0.3,6.4,0.23,9.59-0.09
	c2.31-0.23,4.59-0.66,6.85-1.19c3.15-0.74,6.2-1.75,9.2-2.96c2.35-0.94,4.63-2.03,6.86-3.21c1.66-0.88,3.43,0.12,4.07,1.58
	c0.63,1.45,0.26,2.63-1.09,3.46c-2.98,1.81-6.13,3.27-9.39,4.5C120.38,112.15,117.63,112.98,114.83,113.62z"/>
</svg>
